<mxfile host="app.diagrams.net" modified="2021-12-24T14:48:55.363Z" agent="5.0 (Windows NT 10.0; Win64; x64) AppleWebKit/537.36 (KHTML, like Gecko) Chrome/96.0.4664.110 Safari/537.36" etag="oIqnoM5WbJB251oczcjB" version="16.1.0" type="github">
  <diagram id="b11h2jEulRBrb-ZpYILd" name="第 1 页">
    <mxGraphModel dx="1422" dy="777" grid="1" gridSize="10" guides="1" tooltips="1" connect="1" arrows="1" fold="1" page="1" pageScale="1" pageWidth="1169" pageHeight="1654" math="0" shadow="0">
      <root>
        <mxCell id="0" />
        <mxCell id="1" parent="0" />
        <mxCell id="IKfLSv7TZ7d3dGT8bLUt-12" value="" style="edgeStyle=orthogonalEdgeStyle;rounded=0;orthogonalLoop=1;jettySize=auto;html=1;" parent="1" source="IKfLSv7TZ7d3dGT8bLUt-1" edge="1">
          <mxGeometry relative="1" as="geometry">
            <mxPoint x="270" y="220" as="targetPoint" />
          </mxGeometry>
        </mxCell>
        <mxCell id="IKfLSv7TZ7d3dGT8bLUt-1" value="12345678" style="rounded=1;whiteSpace=wrap;html=1;" parent="1" vertex="1">
          <mxGeometry x="210" y="130" width="120" height="60" as="geometry" />
        </mxCell>
        <mxCell id="IKfLSv7TZ7d3dGT8bLUt-19" value="" style="edgeStyle=orthogonalEdgeStyle;rounded=0;orthogonalLoop=1;jettySize=auto;html=1;" parent="1" source="IKfLSv7TZ7d3dGT8bLUt-2" target="IKfLSv7TZ7d3dGT8bLUt-18" edge="1">
          <mxGeometry relative="1" as="geometry" />
        </mxCell>
        <mxCell id="IKfLSv7TZ7d3dGT8bLUt-2" value="12345678" style="rounded=1;whiteSpace=wrap;html=1;" parent="1" vertex="1">
          <mxGeometry x="380" y="570" width="120" height="60" as="geometry" />
        </mxCell>
        <mxCell id="IKfLSv7TZ7d3dGT8bLUt-31" value="" style="edgeStyle=orthogonalEdgeStyle;rounded=0;orthogonalLoop=1;jettySize=auto;html=1;" parent="1" source="IKfLSv7TZ7d3dGT8bLUt-3" target="IKfLSv7TZ7d3dGT8bLUt-28" edge="1">
          <mxGeometry relative="1" as="geometry" />
        </mxCell>
        <mxCell id="IKfLSv7TZ7d3dGT8bLUt-3" value="12345678" style="rounded=1;whiteSpace=wrap;html=1;" parent="1" vertex="1">
          <mxGeometry x="770" y="140" width="120" height="60" as="geometry" />
        </mxCell>
        <mxCell id="IKfLSv7TZ7d3dGT8bLUt-4" value="" style="ellipse;whiteSpace=wrap;html=1;aspect=fixed;" parent="1" vertex="1">
          <mxGeometry x="470" y="250" width="160" height="160" as="geometry" />
        </mxCell>
        <mxCell id="IKfLSv7TZ7d3dGT8bLUt-5" value="server" style="text;strokeColor=none;fillColor=none;html=1;fontSize=24;fontStyle=1;verticalAlign=middle;align=center;" parent="1" vertex="1">
          <mxGeometry x="500" y="200" width="100" height="20" as="geometry" />
        </mxCell>
        <mxCell id="IKfLSv7TZ7d3dGT8bLUt-6" value="用户1" style="text;strokeColor=none;fillColor=none;html=1;fontSize=24;fontStyle=1;verticalAlign=middle;align=center;" parent="1" vertex="1">
          <mxGeometry x="80" y="60" width="100" height="20" as="geometry" />
        </mxCell>
        <mxCell id="IKfLSv7TZ7d3dGT8bLUt-7" value="用户3" style="text;strokeColor=none;fillColor=none;html=1;fontSize=24;fontStyle=1;verticalAlign=middle;align=center;" parent="1" vertex="1">
          <mxGeometry x="840" y="60" width="100" height="20" as="geometry" />
        </mxCell>
        <mxCell id="IKfLSv7TZ7d3dGT8bLUt-8" value="用户2" style="text;strokeColor=none;fillColor=none;html=1;fontSize=24;fontStyle=1;verticalAlign=middle;align=center;" parent="1" vertex="1">
          <mxGeometry x="500" y="670" width="100" height="20" as="geometry" />
        </mxCell>
        <mxCell id="IKfLSv7TZ7d3dGT8bLUt-13" value="1d1" style="text;html=1;strokeColor=none;fillColor=none;align=center;verticalAlign=middle;whiteSpace=wrap;rounded=0;" parent="1" vertex="1">
          <mxGeometry x="370" y="190" width="60" height="30" as="geometry" />
        </mxCell>
        <mxCell id="IKfLSv7TZ7d3dGT8bLUt-16" value="" style="edgeStyle=orthogonalEdgeStyle;rounded=0;orthogonalLoop=1;jettySize=auto;html=1;" parent="1" source="IKfLSv7TZ7d3dGT8bLUt-14" target="IKfLSv7TZ7d3dGT8bLUt-15" edge="1">
          <mxGeometry relative="1" as="geometry" />
        </mxCell>
        <mxCell id="IKfLSv7TZ7d3dGT8bLUt-14" value="1 del&amp;nbsp; 1" style="text;html=1;strokeColor=none;fillColor=none;align=center;verticalAlign=middle;whiteSpace=wrap;rounded=0;" parent="1" vertex="1">
          <mxGeometry x="240" y="230" width="60" height="30" as="geometry" />
        </mxCell>
        <mxCell id="IKfLSv7TZ7d3dGT8bLUt-64" value="" style="edgeStyle=orthogonalEdgeStyle;rounded=0;orthogonalLoop=1;jettySize=auto;html=1;" parent="1" source="IKfLSv7TZ7d3dGT8bLUt-15" target="IKfLSv7TZ7d3dGT8bLUt-63" edge="1">
          <mxGeometry relative="1" as="geometry" />
        </mxCell>
        <mxCell id="IKfLSv7TZ7d3dGT8bLUt-15" value="2345678" style="text;html=1;strokeColor=none;fillColor=none;align=center;verticalAlign=middle;whiteSpace=wrap;rounded=0;" parent="1" vertex="1">
          <mxGeometry x="240" y="290" width="60" height="30" as="geometry" />
        </mxCell>
        <mxCell id="IKfLSv7TZ7d3dGT8bLUt-17" value="" style="endArrow=classic;html=1;rounded=0;exitX=1;exitY=1;exitDx=0;exitDy=0;" parent="1" source="IKfLSv7TZ7d3dGT8bLUt-1" edge="1">
          <mxGeometry width="50" height="50" relative="1" as="geometry">
            <mxPoint x="560" y="320" as="sourcePoint" />
            <mxPoint x="460" y="290" as="targetPoint" />
          </mxGeometry>
        </mxCell>
        <mxCell id="IKfLSv7TZ7d3dGT8bLUt-22" value="" style="edgeStyle=orthogonalEdgeStyle;rounded=0;orthogonalLoop=1;jettySize=auto;html=1;" parent="1" source="IKfLSv7TZ7d3dGT8bLUt-18" target="IKfLSv7TZ7d3dGT8bLUt-21" edge="1">
          <mxGeometry relative="1" as="geometry" />
        </mxCell>
        <mxCell id="IKfLSv7TZ7d3dGT8bLUt-18" value="4 d 2" style="text;html=1;strokeColor=none;fillColor=none;align=center;verticalAlign=middle;whiteSpace=wrap;rounded=0;" parent="1" vertex="1">
          <mxGeometry x="540" y="585" width="60" height="30" as="geometry" />
        </mxCell>
        <mxCell id="IKfLSv7TZ7d3dGT8bLUt-40" value="" style="edgeStyle=orthogonalEdgeStyle;rounded=0;orthogonalLoop=1;jettySize=auto;html=1;" parent="1" source="IKfLSv7TZ7d3dGT8bLUt-21" target="IKfLSv7TZ7d3dGT8bLUt-39" edge="1">
          <mxGeometry relative="1" as="geometry" />
        </mxCell>
        <mxCell id="IKfLSv7TZ7d3dGT8bLUt-21" value="125678" style="text;html=1;strokeColor=none;fillColor=none;align=center;verticalAlign=middle;whiteSpace=wrap;rounded=0;" parent="1" vertex="1">
          <mxGeometry x="640" y="585" width="60" height="30" as="geometry" />
        </mxCell>
        <mxCell id="IKfLSv7TZ7d3dGT8bLUt-23" value="" style="endArrow=classic;html=1;rounded=0;" parent="1" target="IKfLSv7TZ7d3dGT8bLUt-4" edge="1">
          <mxGeometry width="50" height="50" relative="1" as="geometry">
            <mxPoint x="470" y="560" as="sourcePoint" />
            <mxPoint x="740" y="610" as="targetPoint" />
          </mxGeometry>
        </mxCell>
        <mxCell id="IKfLSv7TZ7d3dGT8bLUt-24" value="4 d 2" style="text;html=1;strokeColor=none;fillColor=none;align=center;verticalAlign=middle;whiteSpace=wrap;rounded=0;" parent="1" vertex="1">
          <mxGeometry x="460" y="460" width="60" height="30" as="geometry" />
        </mxCell>
        <mxCell id="IKfLSv7TZ7d3dGT8bLUt-33" value="" style="edgeStyle=orthogonalEdgeStyle;rounded=0;orthogonalLoop=1;jettySize=auto;html=1;" parent="1" source="IKfLSv7TZ7d3dGT8bLUt-28" target="IKfLSv7TZ7d3dGT8bLUt-32" edge="1">
          <mxGeometry relative="1" as="geometry" />
        </mxCell>
        <mxCell id="IKfLSv7TZ7d3dGT8bLUt-28" value="7 d 1" style="text;html=1;strokeColor=none;fillColor=none;align=center;verticalAlign=middle;whiteSpace=wrap;rounded=0;" parent="1" vertex="1">
          <mxGeometry x="920" y="155" width="60" height="30" as="geometry" />
        </mxCell>
        <mxCell id="IKfLSv7TZ7d3dGT8bLUt-51" value="" style="edgeStyle=orthogonalEdgeStyle;rounded=0;orthogonalLoop=1;jettySize=auto;html=1;" parent="1" source="IKfLSv7TZ7d3dGT8bLUt-32" target="IKfLSv7TZ7d3dGT8bLUt-50" edge="1">
          <mxGeometry relative="1" as="geometry" />
        </mxCell>
        <mxCell id="IKfLSv7TZ7d3dGT8bLUt-32" value="1234568" style="text;html=1;strokeColor=none;fillColor=none;align=center;verticalAlign=middle;whiteSpace=wrap;rounded=0;" parent="1" vertex="1">
          <mxGeometry x="1010" y="155" width="60" height="30" as="geometry" />
        </mxCell>
        <mxCell id="IKfLSv7TZ7d3dGT8bLUt-34" value="" style="endArrow=classic;html=1;rounded=0;exitX=0;exitY=1;exitDx=0;exitDy=0;" parent="1" source="IKfLSv7TZ7d3dGT8bLUt-3" edge="1">
          <mxGeometry width="50" height="50" relative="1" as="geometry">
            <mxPoint x="860" y="380" as="sourcePoint" />
            <mxPoint x="640" y="320" as="targetPoint" />
          </mxGeometry>
        </mxCell>
        <mxCell id="IKfLSv7TZ7d3dGT8bLUt-35" value="7 d 1" style="text;html=1;align=center;verticalAlign=middle;resizable=0;points=[];autosize=1;strokeColor=none;fillColor=none;" parent="1" vertex="1">
          <mxGeometry x="700" y="270" width="40" height="20" as="geometry" />
        </mxCell>
        <mxCell id="IKfLSv7TZ7d3dGT8bLUt-36" value="" style="endArrow=classic;html=1;rounded=0;" parent="1" edge="1">
          <mxGeometry width="50" height="50" relative="1" as="geometry">
            <mxPoint x="560" y="415" as="sourcePoint" />
            <mxPoint x="510" y="575" as="targetPoint" />
          </mxGeometry>
        </mxCell>
        <mxCell id="IKfLSv7TZ7d3dGT8bLUt-37" value="5 d 1" style="text;html=1;strokeColor=none;fillColor=none;align=center;verticalAlign=middle;whiteSpace=wrap;rounded=0;" parent="1" vertex="1">
          <mxGeometry x="550" y="480" width="60" height="30" as="geometry" />
        </mxCell>
        <mxCell id="IKfLSv7TZ7d3dGT8bLUt-42" value="" style="edgeStyle=orthogonalEdgeStyle;rounded=0;orthogonalLoop=1;jettySize=auto;html=1;" parent="1" source="IKfLSv7TZ7d3dGT8bLUt-39" target="IKfLSv7TZ7d3dGT8bLUt-41" edge="1">
          <mxGeometry relative="1" as="geometry" />
        </mxCell>
        <mxCell id="IKfLSv7TZ7d3dGT8bLUt-39" value="5 d 1" style="text;html=1;strokeColor=none;fillColor=none;align=center;verticalAlign=middle;whiteSpace=wrap;rounded=0;" parent="1" vertex="1">
          <mxGeometry x="730" y="585" width="60" height="30" as="geometry" />
        </mxCell>
        <mxCell id="IKfLSv7TZ7d3dGT8bLUt-47" value="" style="edgeStyle=orthogonalEdgeStyle;rounded=0;orthogonalLoop=1;jettySize=auto;html=1;" parent="1" source="IKfLSv7TZ7d3dGT8bLUt-41" target="IKfLSv7TZ7d3dGT8bLUt-46" edge="1">
          <mxGeometry relative="1" as="geometry" />
        </mxCell>
        <mxCell id="IKfLSv7TZ7d3dGT8bLUt-41" value="12568" style="text;html=1;strokeColor=none;fillColor=none;align=center;verticalAlign=middle;whiteSpace=wrap;rounded=0;" parent="1" vertex="1">
          <mxGeometry x="840" y="585" width="60" height="30" as="geometry" />
        </mxCell>
        <mxCell id="IKfLSv7TZ7d3dGT8bLUt-43" value="" style="endArrow=classic;html=1;rounded=0;exitX=0;exitY=1;exitDx=0;exitDy=0;" parent="1" source="IKfLSv7TZ7d3dGT8bLUt-4" edge="1">
          <mxGeometry width="50" height="50" relative="1" as="geometry">
            <mxPoint x="470" y="390" as="sourcePoint" />
            <mxPoint x="430" y="560" as="targetPoint" />
          </mxGeometry>
        </mxCell>
        <mxCell id="IKfLSv7TZ7d3dGT8bLUt-45" value="1d1" style="text;html=1;strokeColor=none;fillColor=none;align=center;verticalAlign=middle;whiteSpace=wrap;rounded=0;" parent="1" vertex="1">
          <mxGeometry x="400" y="450" width="60" height="30" as="geometry" />
        </mxCell>
        <mxCell id="IKfLSv7TZ7d3dGT8bLUt-49" value="" style="edgeStyle=orthogonalEdgeStyle;rounded=0;orthogonalLoop=1;jettySize=auto;html=1;" parent="1" source="IKfLSv7TZ7d3dGT8bLUt-46" target="IKfLSv7TZ7d3dGT8bLUt-48" edge="1">
          <mxGeometry relative="1" as="geometry" />
        </mxCell>
        <mxCell id="IKfLSv7TZ7d3dGT8bLUt-46" value="1d1" style="text;html=1;strokeColor=none;fillColor=none;align=center;verticalAlign=middle;whiteSpace=wrap;rounded=0;" parent="1" vertex="1">
          <mxGeometry x="840" y="665" width="60" height="30" as="geometry" />
        </mxCell>
        <mxCell id="IKfLSv7TZ7d3dGT8bLUt-48" value="2568" style="text;html=1;strokeColor=none;fillColor=none;align=center;verticalAlign=middle;whiteSpace=wrap;rounded=0;" parent="1" vertex="1">
          <mxGeometry x="840" y="750" width="60" height="30" as="geometry" />
        </mxCell>
        <mxCell id="IKfLSv7TZ7d3dGT8bLUt-53" value="" style="edgeStyle=orthogonalEdgeStyle;rounded=0;orthogonalLoop=1;jettySize=auto;html=1;" parent="1" source="IKfLSv7TZ7d3dGT8bLUt-50" target="IKfLSv7TZ7d3dGT8bLUt-52" edge="1">
          <mxGeometry relative="1" as="geometry" />
        </mxCell>
        <mxCell id="IKfLSv7TZ7d3dGT8bLUt-50" value="4 d 2" style="text;html=1;strokeColor=none;fillColor=none;align=center;verticalAlign=middle;whiteSpace=wrap;rounded=0;" parent="1" vertex="1">
          <mxGeometry x="1010" y="220" width="60" height="30" as="geometry" />
        </mxCell>
        <mxCell id="IKfLSv7TZ7d3dGT8bLUt-55" value="" style="edgeStyle=orthogonalEdgeStyle;rounded=0;orthogonalLoop=1;jettySize=auto;html=1;" parent="1" source="IKfLSv7TZ7d3dGT8bLUt-52" target="IKfLSv7TZ7d3dGT8bLUt-54" edge="1">
          <mxGeometry relative="1" as="geometry" />
        </mxCell>
        <mxCell id="IKfLSv7TZ7d3dGT8bLUt-52" value="12568" style="text;html=1;strokeColor=none;fillColor=none;align=center;verticalAlign=middle;whiteSpace=wrap;rounded=0;" parent="1" vertex="1">
          <mxGeometry x="1010" y="280" width="60" height="30" as="geometry" />
        </mxCell>
        <mxCell id="IKfLSv7TZ7d3dGT8bLUt-57" value="" style="edgeStyle=orthogonalEdgeStyle;rounded=0;orthogonalLoop=1;jettySize=auto;html=1;" parent="1" source="IKfLSv7TZ7d3dGT8bLUt-54" target="IKfLSv7TZ7d3dGT8bLUt-56" edge="1">
          <mxGeometry relative="1" as="geometry" />
        </mxCell>
        <mxCell id="IKfLSv7TZ7d3dGT8bLUt-54" value="1d1" style="text;html=1;strokeColor=none;fillColor=none;align=center;verticalAlign=middle;whiteSpace=wrap;rounded=0;" parent="1" vertex="1">
          <mxGeometry x="1010" y="330" width="60" height="30" as="geometry" />
        </mxCell>
        <mxCell id="IKfLSv7TZ7d3dGT8bLUt-56" value="2568" style="text;html=1;strokeColor=none;fillColor=none;align=center;verticalAlign=middle;whiteSpace=wrap;rounded=0;" parent="1" vertex="1">
          <mxGeometry x="1010" y="390" width="60" height="30" as="geometry" />
        </mxCell>
        <mxCell id="IKfLSv7TZ7d3dGT8bLUt-58" value="" style="endArrow=classic;html=1;rounded=0;" parent="1" edge="1">
          <mxGeometry width="50" height="50" relative="1" as="geometry">
            <mxPoint x="640" y="290" as="sourcePoint" />
            <mxPoint x="760" y="180" as="targetPoint" />
          </mxGeometry>
        </mxCell>
        <mxCell id="IKfLSv7TZ7d3dGT8bLUt-59" value="4 d 1" style="text;html=1;strokeColor=none;fillColor=none;align=center;verticalAlign=middle;whiteSpace=wrap;rounded=0;" parent="1" vertex="1">
          <mxGeometry x="630" y="210" width="60" height="30" as="geometry" />
        </mxCell>
        <mxCell id="IKfLSv7TZ7d3dGT8bLUt-60" value="" style="endArrow=classic;html=1;rounded=0;" parent="1" edge="1">
          <mxGeometry width="50" height="50" relative="1" as="geometry">
            <mxPoint x="640" y="380" as="sourcePoint" />
            <mxPoint x="810" y="210" as="targetPoint" />
            <Array as="points">
              <mxPoint x="720" y="300" />
            </Array>
          </mxGeometry>
        </mxCell>
        <mxCell id="IKfLSv7TZ7d3dGT8bLUt-61" value="1 d 1" style="text;html=1;strokeColor=none;fillColor=none;align=center;verticalAlign=middle;whiteSpace=wrap;rounded=0;" parent="1" vertex="1">
          <mxGeometry x="720" y="300" width="60" height="30" as="geometry" />
        </mxCell>
        <mxCell id="IKfLSv7TZ7d3dGT8bLUt-66" value="" style="edgeStyle=orthogonalEdgeStyle;rounded=0;orthogonalLoop=1;jettySize=auto;html=1;" parent="1" source="IKfLSv7TZ7d3dGT8bLUt-63" target="IKfLSv7TZ7d3dGT8bLUt-65" edge="1">
          <mxGeometry relative="1" as="geometry" />
        </mxCell>
        <mxCell id="IKfLSv7TZ7d3dGT8bLUt-63" value="3d2" style="text;html=1;strokeColor=none;fillColor=none;align=center;verticalAlign=middle;whiteSpace=wrap;rounded=0;" parent="1" vertex="1">
          <mxGeometry x="240" y="340" width="60" height="30" as="geometry" />
        </mxCell>
        <mxCell id="IKfLSv7TZ7d3dGT8bLUt-70" value="" style="edgeStyle=orthogonalEdgeStyle;rounded=0;orthogonalLoop=1;jettySize=auto;html=1;" parent="1" source="IKfLSv7TZ7d3dGT8bLUt-65" target="IKfLSv7TZ7d3dGT8bLUt-69" edge="1">
          <mxGeometry relative="1" as="geometry" />
        </mxCell>
        <mxCell id="IKfLSv7TZ7d3dGT8bLUt-65" value="25678" style="text;html=1;strokeColor=none;fillColor=none;align=center;verticalAlign=middle;whiteSpace=wrap;rounded=0;" parent="1" vertex="1">
          <mxGeometry x="240" y="390" width="60" height="30" as="geometry" />
        </mxCell>
        <mxCell id="IKfLSv7TZ7d3dGT8bLUt-72" value="" style="edgeStyle=orthogonalEdgeStyle;rounded=0;orthogonalLoop=1;jettySize=auto;html=1;" parent="1" source="IKfLSv7TZ7d3dGT8bLUt-69" target="IKfLSv7TZ7d3dGT8bLUt-71" edge="1">
          <mxGeometry relative="1" as="geometry" />
        </mxCell>
        <mxCell id="IKfLSv7TZ7d3dGT8bLUt-69" value="4d1" style="text;html=1;strokeColor=none;fillColor=none;align=center;verticalAlign=middle;whiteSpace=wrap;rounded=0;" parent="1" vertex="1">
          <mxGeometry x="240" y="440" width="60" height="30" as="geometry" />
        </mxCell>
        <mxCell id="IKfLSv7TZ7d3dGT8bLUt-71" value="2568" style="text;html=1;strokeColor=none;fillColor=none;align=center;verticalAlign=middle;whiteSpace=wrap;rounded=0;" parent="1" vertex="1">
          <mxGeometry x="240" y="490" width="60" height="30" as="geometry" />
        </mxCell>
        <mxCell id="IKfLSv7TZ7d3dGT8bLUt-73" value="" style="endArrow=classic;html=1;rounded=0;" parent="1" edge="1">
          <mxGeometry width="50" height="50" relative="1" as="geometry">
            <mxPoint x="460" y="320" as="sourcePoint" />
            <mxPoint x="310" y="200" as="targetPoint" />
          </mxGeometry>
        </mxCell>
        <mxCell id="IKfLSv7TZ7d3dGT8bLUt-74" value="3 d 2" style="text;html=1;strokeColor=none;fillColor=none;align=center;verticalAlign=middle;whiteSpace=wrap;rounded=0;" parent="1" vertex="1">
          <mxGeometry x="330" y="265" width="60" height="30" as="geometry" />
        </mxCell>
        <mxCell id="IKfLSv7TZ7d3dGT8bLUt-75" value="" style="endArrow=classic;html=1;rounded=0;" parent="1" edge="1">
          <mxGeometry width="50" height="50" relative="1" as="geometry">
            <mxPoint x="490" y="250" as="sourcePoint" />
            <mxPoint x="360" y="160" as="targetPoint" />
          </mxGeometry>
        </mxCell>
        <mxCell id="IKfLSv7TZ7d3dGT8bLUt-76" value="4 d 1" style="text;html=1;align=center;verticalAlign=middle;resizable=0;points=[];autosize=1;strokeColor=none;fillColor=none;" parent="1" vertex="1">
          <mxGeometry x="410" y="170" width="40" height="20" as="geometry" />
        </mxCell>
        <mxCell id="IKfLSv7TZ7d3dGT8bLUt-77" value="push 1,3" style="text;html=1;strokeColor=none;fillColor=none;align=center;verticalAlign=middle;whiteSpace=wrap;rounded=0;" parent="1" vertex="1">
          <mxGeometry x="520" y="291" width="60" height="30" as="geometry" />
        </mxCell>
        <mxCell id="IKfLSv7TZ7d3dGT8bLUt-78" value="push 1,2" style="text;html=1;strokeColor=none;fillColor=none;align=center;verticalAlign=middle;whiteSpace=wrap;rounded=0;" parent="1" vertex="1">
          <mxGeometry x="520" y="322" width="60" height="30" as="geometry" />
        </mxCell>
        <mxCell id="IKfLSv7TZ7d3dGT8bLUt-79" value="push 2,3" style="text;html=1;strokeColor=none;fillColor=none;align=center;verticalAlign=middle;whiteSpace=wrap;rounded=0;" parent="1" vertex="1">
          <mxGeometry x="520" y="352" width="60" height="30" as="geometry" />
        </mxCell>
      </root>
    </mxGraphModel>
  </diagram>
</mxfile>
